PathFileType	4	(X/Y/Z)	C:\Users\Basilio\Documents\Thesis Gigler\squatting_fais\c3dfiles\047\SJ_pre2\markers_experimental.trc
DataRate	CameraRate	NumFrames	NumMarkers	Units	OrigDataRate	OrigDataStartFrame	OrigNumFrames
200.000000	200.000000	4	60	mm	200.000000	613	1636
Frame#	Time	FHD			LBHD			RBHD			C7			T10			CLAV			LSHO			LUUPA			LMUPA			LDUPA			LLEP			LMEP			LRAD			LUL			LRFIN			RSHO			RUPA1			RMUPA			RDUPA			RLEP			RMEP			RRAD			RUL			RUFIN			RASI			USACR			LSACR			RSACR			LTHI1			LTHI2			LTHI3			LTHI4			LLFC			LMFC			LTIB1			LTIB2			LTIB3			LTIB4			LLMAL			LMMAL			LMT1			LMT2			LMT5			RTHI			RTHI2			RTHI3			RTHI4			RLFC			RMFC			RTIB1			RTIB2			RTIB3			RTIB4			RLMAL			RMMAL			RHEE			RMT1			RMT2			RMT5			LASI			
		X1	Y1	Z1	X2	Y2	Z2	X3	Y3	Z3	X4	Y4	Z4	X5	Y5	Z5	X6	Y6	Z6	X7	Y7	Z7	X8	Y8	Z8	X9	Y9	Z9	X10	Y10	Z10	X11	Y11	Z11	X12	Y12	Z12	X13	Y13	Z13	X14	Y14	Z14	X15	Y15	Z15	X16	Y16	Z16	X17	Y17	Z17	X18	Y18	Z18	X19	Y19	Z19	X20	Y20	Z20	X21	Y21	Z21	X22	Y22	Z22	X23	Y23	Z23	X24	Y24	Z24	X25	Y25	Z25	X26	Y26	Z26	X27	Y27	Z27	X28	Y28	Z28	X29	Y29	Z29	X30	Y30	Z30	X31	Y31	Z31	X32	Y32	Z32	X33	Y33	Z33	X34	Y34	Z34	X35	Y35	Z35	X36	Y36	Z36	X37	Y37	Z37	X38	Y38	Z38	X39	Y39	Z39	X40	Y40	Z40	X41	Y41	Z41	X42	Y42	Z42	X43	Y43	Z43	X44	Y44	Z44	X45	Y45	Z45	X46	Y46	Z46	X47	Y47	Z47	X48	Y48	Z48	X49	Y49	Z49	X50	Y50	Z50	X51	Y51	Z51	X52	Y52	Z52	X53	Y53	Z53	X54	Y54	Z54	X55	Y55	Z55	X56	Y56	Z56	X57	Y57	Z57	X58	Y58	Z58	X59	Y59	Z59	X60	Y60	Z60	

614	3.065	202.0105590820313	1083.9970703125	-900.7175903320315	46.85179138183594	1139.616333007813	-980.0257568359377	30.24450683593751	1153.730834960938	-833.2313232421877	-88.54790496826173	1052.607299804688	-908.4737548828127	-346.0130615234376	864.9273681640627	-894.8225708007815	-15.59969329833985	899.3969726562502	-901.8593750000002	-37.53809356689454	963.8472900390627	-1076.758666992188	-183.9979095458985	983.8955078125002	-1196.616821289063	-182.3545989990235	938.855651855469	-1219.917236328125	-233.0086212158204	961.973571777344	-1243.115234375	-281.1355895996094	916.0261230468752	-1281.242797851563	-338.6894836425782	944.3201293945315	-1206.992919921875	-346.3061218261719	747.7047729492189	-1099.498413085938	-350.7781066894532	693.9318847656251	-1155.9990234375	-311.4927368164063	698.1331176757814	-1063.370849609375	-40.86366271972657	992.1946411132815	-745.8165893554689	-197.7860717773438	1014.145324707031	-618.3261718750001	-198.2708892822266	970.936706542969	-594.2282104492189	-249.0148925781251	995.0899047851565	-573.0855712890626	-295.7310485839844	947.0501708984377	-535.1831665039064	-358.1953735351563	962.8391723632815	-603.0606689453126	-311.5205383300782	752.1660766601564	-695.9755859375001	-307.3614196777344	709.3199462890626	-632.4895019531251	-283.6467590332032	696.5538940429689	-732.0764770507814	-364.2439575195313	602.2749633789064	-765.3953857421876	-471.6907348632814	768.0775146484377	-891.3422851562502	-496.2937622070314	749.2108154296876	-920.4080810546877	-496.1960754394532	747.8117065429689	-861.755065917969	-440.0037231445314	587.2777709960939	-1112.481079101563	-360.5065612792969	584.0310058593751	-1132.847534179688	-333.9663391113282	618.1240844726564	-1110.086181640625	-331.6600036621094	538.3983764648439	-1159.054809570313	-200.2784118652344	441.9990539550782	-1196.169799804688	-139.3536224365235	430.353729248047	-1081.979370117188	-196.0861206054688	270.7454223632813	-1109.576416015625	-238.6640014648438	234.5906982421876	-1177.323364257813	-215.9664764404297	226.3578338623047	-1138.180419921875	-260.3608093261719	163.9317474365235	-1101.54150390625	-352.4057006835938	95.00375366210939	-1140.582763671875	-316.2353820800782	104.3866500854492	-1056.033569335938	-199.3414306640626	64.36341094970705	-1106.056884765625	-210.3411865234376	60.92663574218751	-1147.232543945313	-258.1727294921876	43.24604415893555	-1187.415649414063	-414.4588317871095	554.9291992187501	-652.2585449218751	-350.3302307128907	557.7799682617189	-634.2028808593751	-331.1958923339844	583.0270385742189	-643.0526733398439	-301.0405578613282	493.9208984375001	-611.7026367187501	-176.9180145263672	424.1441955566407	-599.9978027343751	-125.7559051513672	425.5035400390626	-723.9749755859376	-162.4374694824219	300.8263244628907	-626.8451538085939	-263.3287658691407	256.1595764160157	-606.7843627929689	-222.2682495117188	237.729232788086	-620.9664306640626	-232.2818756103516	195.6376647949219	-661.9005126953126	-361.2735595703126	91.07302856445314	-660.6098632812501	-316.9787902832032	103.3541870117188	-744.2384033203126	-416.2898559570314	53.28602600097658	-725.2736206054689	-203.0903015136719	55.05492019653322	-697.8065795898439	-212.9635620117188	57.1085777282715	-652.3099365234376	-270.2700195312501	30.9002857208252	-605.1884765625001	-370.7233886718751	597.9132690429689	-988.1866455078127	
615	3.07	202.1927185058594	1084.084838867188	-900.6649169921877	47.09930038452149	1139.762329101563	-979.8399047851565	30.48754501342774	1153.799194335938	-833.0028076171877	-88.3367385864258	1052.775024414063	-908.313903808594	-345.7345886230469	865.022399902344	-894.714538574219	-15.25133991241455	899.5095214843752	-901.7067871093752	-37.29138565063477	964.0388183593752	-1076.6826171875	-183.749755859375	984.1152343750002	-1196.503295898438	-182.3153533935547	938.9979248046877	-1219.798583984375	-232.7523498535157	962.1179199218752	-1243.028564453125	-281.0006713867188	916.203552246094	-1281.124389648438	-338.4172363281251	944.6494140625002	-1206.859619140625	-346.1213684082032	747.9978027343751	-1099.377563476563	-350.7092895507813	694.1889648437501	-1155.88134765625	-311.2886962890626	698.4140014648439	-1063.296875	-40.77450561523438	992.2629394531252	-745.6357421875001	-197.7664794921876	1014.471557617188	-618.2520751953126	-198.2041625976563	971.0430908203127	-594.0781860351564	-248.9393920898438	995.2996826171877	-573.0669555664064	-295.6289978027344	947.3755493164065	-535.2611083984376	-358.1282653808594	963.1817016601565	-603.0620727539064	-311.6208190917969	752.3843994140626	-695.8931884765626	-307.3658752441407	709.6776123046876	-632.3934326171876	-283.6001281738282	696.7273559570314	-732.0372924804689	-364.8438110351563	601.7596435546876	-765.4425048828126	-471.5293579101564	768.1602783203127	-891.238952636719	-496.2180786132814	749.4585571289064	-920.219665527344	-496.1221008300782	748.0102539062501	-861.6315917968752	-439.8970031738282	587.4674072265626	-1112.33203125	-360.4275512695313	584.1840820312501	-1132.7138671875	-333.9303283691407	618.2211303710939	-1109.863647460938	-331.5773925781251	538.5329589843751	-1158.978881835938	-200.2570190429688	442.0202026367189	-1196.062377929688	-139.2750244140625	430.3597717285157	-1081.8974609375	-196.090072631836	270.7617797851563	-1109.577514648438	-238.6887512207032	234.6168823242188	-1177.252685546875	-215.7380371093751	226.0138854980469	-1138.285522460938	-260.3688964843751	163.8904724121094	-1101.506225585938	-352.4185485839844	94.99670410156251	-1140.543090820313	-316.2077941894532	104.4030227661133	-1055.983764648438	-199.3306121826172	64.39036560058595	-1106.094604492188	-210.326644897461	60.88015365600587	-1147.205200195313	-258.2090148925782	43.21010971069337	-1187.390991210938	-414.3822326660157	555.1309814453126	-652.0184936523439	-350.2385864257813	557.9645996093751	-634.0821533203126	-331.1289367675782	583.1337890625001	-642.9135742187501	-301.0249633789063	494.0687255859376	-611.7553100585939	-176.9915924072266	424.1334228515626	-599.8735351562501	-125.8619842529297	425.5234375000001	-723.7449951171876	-162.5013122558594	300.8384399414063	-626.6891479492189	-263.3736572265626	256.1870117187501	-606.7562255859376	-222.3146209716797	237.6989135742188	-620.7860107421876	-232.3283233642579	195.6133117675782	-661.8057861328126	-361.3363647460938	91.0298309326172	-660.6727905273439	-316.9191284179688	103.3373184204102	-744.2188110351564	-416.2477111816407	53.29925537109376	-725.2869262695314	-202.871810913086	54.88365554809572	-697.7855834960939	-212.9578552246094	57.0830764770508	-652.3298950195314	-270.2490234375001	30.90036010742188	-605.1525268554689	-371.4879150390626	597.5533447265626	-988.226989746094	
616	3.075	202.7291717529297	1084.351806640625	-900.788513183594	47.34236526489259	1139.939331054688	-979.8152465820315	30.73301124572755	1154.072387695313	-832.8022460937502	-88.11000061035158	1052.94873046875	-908.148620605469	-345.6357421875001	865.449157714844	-894.8929443359377	-14.80188846588135	899.630310058594	-901.7099609375002	-37.13406372070313	964.3593750000002	-1076.5693359375	-183.4071502685547	984.3945922851565	-1196.41552734375	-181.9902038574219	939.2437744140627	-1219.747924804688	-232.6004943847657	962.293640136719	-1242.90380859375	-280.8616943359376	916.3819580078127	-1280.970458984375	-338.0858459472657	944.9387817382815	-1206.711181640625	-346.0144042968751	748.2217407226564	-1099.263549804688	-350.6054992675782	694.4694213867189	-1155.73779296875	-311.1976318359376	698.6069335937501	-1063.1884765625	-40.5835189819336	992.4311523437502	-745.4732666015626	-197.7344055175782	1014.728210449219	-618.3023071289064	-198.0802154541016	971.3442993164065	-593.9591674804689	-248.7897949218751	995.5984497070315	-573.0965576171876	-295.6529541015626	947.743591308594	-535.1088867187501	-358.2407531738282	963.6522216796877	-602.8453369140626	-311.4953002929688	752.5658569335939	-695.7316284179689	-307.4187622070313	709.9110717773439	-632.2970581054689	-283.5640258789063	696.9983520507814	-731.7766113281251	-364.2960815429688	601.9559326171876	-765.7270507812501	-471.4039916992189	768.4458618164065	-890.9131469726565	-496.055389404297	749.7841796875001	-920.1059570312502	-495.872772216797	748.2269897460939	-861.4424438476565	-439.806121826172	587.6957397460939	-1112.236694335938	-360.2833557128907	584.3267211914064	-1132.581176757813	-333.9101562500001	618.3696289062501	-1109.608276367188	-331.5973510742188	538.7001953125001	-1158.925537109375	-200.2706909179688	442.0993957519532	-1195.968994140625	-139.2703704833985	430.376922607422	-1081.796630859375	-196.1490936279297	270.8522338867188	-1109.463745117188	-238.7351379394532	234.6335906982422	-1177.216918945313	-215.9687194824219	226.4095458984376	-1138.208862304688	-260.4312438964844	163.9395599365235	-1101.486938476563	-352.4290466308594	95.01333618164064	-1140.567749023438	-316.2053833007813	104.3907012939453	-1056.028564453125	-199.3165130615235	64.34610748291017	-1106.108154296875	-210.2211151123047	60.78633499145509	-1147.154174804688	-258.2166748046876	43.20415115356446	-1187.35888671875	-414.3134765625001	555.3622436523439	-651.8332519531251	-350.2284240722657	558.0072021484376	-633.7218627929689	-331.0863342285157	583.2407836914064	-642.7489013671876	-301.0851745605469	494.111541748047	-611.4736938476564	-176.9977264404297	424.1375427246095	-599.7912597656251	-126.0392990112305	425.4903259277345	-723.5997924804689	-162.5886535644532	300.8244934082032	-626.5064697265626	-263.3831481933594	256.1818237304688	-606.7229614257814	-222.4705200195313	237.7380065917969	-620.6745605468751	-232.3294982910157	195.7134704589844	-661.7353515625001	-361.2470397949219	91.05754852294923	-660.6835937500001	-316.8551330566407	103.4089813232422	-744.1678466796876	-416.2484130859376	53.31478118896486	-725.2953491210939	-202.8550872802735	54.88469314575197	-697.7725830078126	-213.0947723388672	57.18350982666017	-652.2682495117189	-270.2052307128907	30.85013389587403	-605.2152709960939	-370.9979553222657	598.3678588867189	-988.5169677734377	
617	3.08	202.9075164794922	1084.562866210938	-900.7827758789065	47.40703201293946	1140.14599609375	-979.6184692382815	30.94182014465333	1154.216918945313	-832.5372314453127	-87.50518035888673	1052.625	-908.1938476562502	-345.3234558105469	865.5971679687502	-894.8575439453127	-14.64579391479493	899.6907348632815	-901.4829711914065	-36.88871002197266	964.591003417969	-1076.494750976563	-183.1319274902344	984.6483154296877	-1196.3349609375	-181.869873046875	939.4624023437502	-1219.609985351563	-232.3147277832032	962.5981445312502	-1242.8291015625	-280.7773132324219	916.6973266601565	-1280.7421875	-337.8811340332032	945.2017822265627	-1206.503784179688	-345.9273376464844	748.4197387695314	-1099.161499023438	-350.4817810058594	694.7962646484376	-1155.663208007813	-311.1562500000001	698.8211669921876	-1063.061645507813	-40.53973388671876	992.6179809570315	-745.2793579101564	-197.4956359863282	1015.027221679688	-618.3552246093751	-197.9289550781251	971.5610961914065	-594.0241088867189	-248.6266479492188	995.914245605469	-573.0555419921876	-295.4031677246094	948.108337402344	-535.0216674804689	-358.0655212402344	963.9743652343752	-602.8590087890626	-311.3814392089844	752.7526245117189	-695.5872192382814	-307.4197692871094	710.1163940429689	-632.0927124023439	-283.5639648437501	697.1703491210939	-731.8982543945314	-363.9938964843751	601.5798339843751	-766.5072631835939	-471.0947570800782	768.7462158203127	-890.7855224609377	-496.0069885253907	750.1045532226564	-919.9803466796877	-495.6807250976564	748.3303833007814	-861.293640136719	-439.7535400390626	587.9075317382814	-1112.100830078125	-360.1574707031251	584.4609985351564	-1132.478149414063	-333.7992858886719	618.4871826171876	-1109.46875	-331.5681152343751	538.7826538085939	-1158.858642578125	-200.3061828613282	442.1617431640626	-1195.792236328125	-139.2690124511719	430.4048156738282	-1081.672729492188	-196.1184234619141	270.9012145996094	-1109.498046875	-238.7332153320313	234.6911010742188	-1177.193359375	-215.9627990722657	226.431869506836	-1138.133911132813	-260.3831787109376	164.0207672119141	-1101.50341796875	-352.3347167968751	94.97566986083986	-1140.572265625	-316.1478881835938	104.450309753418	-1056.006591796875	-199.2886657714844	64.40953826904298	-1106.09716796875	-210.1975860595704	60.72963333129884	-1147.140014648438	-258.2220458984376	43.19889450073243	-1187.381469726563	-414.2437744140626	555.5374145507814	-651.6907958984376	-350.1758117675782	558.1524658203126	-633.5583496093751	-331.0530395507813	583.3541259765626	-642.5969238281251	-301.2591857910157	494.3604125976564	-611.2753906250001	-177.0994262695313	424.1953430175782	-599.6275634765626	-126.2132415771485	425.4496459960939	-723.4073486328126	-162.6658782958985	300.8438110351563	-626.3127441406251	-263.4217529296876	256.1540527343751	-606.6561889648439	-222.4583892822266	237.7685852050782	-620.6866455078126	-232.4204254150391	195.7535705566407	-661.6320800781251	-361.2280578613282	91.05232238769533	-660.7059326171876	-316.8753051757813	103.4159774780274	-744.1320190429689	-416.2425231933595	53.29087448120119	-725.2940063476564	-203.0734252929688	54.99628067016603	-697.7031250000001	-213.0836486816407	57.17449188232423	-652.2551269531251	-270.2595214843751	30.86661338806153	-605.1936645507814	-371.3087768554688	598.8050537109376	-989.285095214844	
